<svg xmlns="http://www.w3.org/2000/svg" width="32" height="32" viewBox="0 0 32 32">
  <path d="M9.61289944,8.20970461 L9.70710678,8.29289322 L16,14.585 L22.2928932,8.29289322 C22.6834175,7.90236893 23.3165825,7.90236893 23.7071068,8.29289322 C24.0675907,8.65337718 24.0953203,9.22060824 23.7902954,9.61289944 L23.7071068,9.70710678 L17.415,16 L23.7071068,22.2928932 C24.0976311,22.6834175 24.0976311,23.3165825 23.7071068,23.7071068 C23.3466228,24.0675907 22.7793918,24.0953203 22.3871006,23.7902954 L22.2928932,23.7071068 L16,17.415 L9.70710678,23.7071068 C9.31658249,24.0976311 8.68341751,24.0976311 8.29289322,23.7071068 C7.93240926,23.3466228 7.90467972,22.7793918 8.20970461,22.3871006 L8.29289322,22.2928932 L14.585,16 L8.29289322,9.70710678 C7.90236893,9.31658249 7.90236893,8.68341751 8.29289322,8.29289322 C8.65337718,7.93240926 9.22060824,7.90467972 9.61289944,8.20970461 Z"/>
</svg>
