<svg xmlns="http://www.w3.org/2000/svg" width="32" height="32" viewBox="0 0 32 32">
  <path d="M16,5 L16.0193545,5.00018615 C16.042681,5.00063489 16.0659949,5.00189498 16.0892501,5.00396641 L16,5 C16.0506203,5 16.1003621,5.00376119 16.1489612,5.01101934 C16.165949,5.01362808 16.1833753,5.01670217 16.2007258,5.02024007 C16.2227461,5.0246398 16.2444365,5.02983363 16.2658396,5.03572097 C16.2814633,5.04009773 16.2968513,5.04472872 16.3121425,5.04973809 C16.3317977,5.05612249 16.3515792,5.06331574 16.3710585,5.07110396 C16.3887956,5.07819642 16.4060985,5.08567905 16.4232215,5.09367336 C16.4438914,5.10337664 16.4642939,5.11379392 16.484277,5.12487577 C16.4963944,5.13149883 16.5086131,5.13860692 16.5207088,5.14599545 C16.546275,5.1617187 16.5711307,5.17849009 16.5951593,5.19631351 C16.6012086,5.20071786 16.6070733,5.20517454 16.6128994,5.20970461 C16.6196628,5.21507113 16.6225624,5.2173721 16.625449,5.21968877 L16.7071068,5.29289322 L19.7071068,8.29289322 C20.0976311,8.68341751 20.0976311,9.31658249 19.7071068,9.70710678 C19.3466228,10.0675907 18.7793918,10.0953203 18.3871006,9.79029539 L18.2928932,9.70710678 L17,8.414 L17,15 L23.585,15 L22.2928932,13.7071068 C21.9324093,13.3466228 21.9046797,12.7793918 22.2097046,12.3871006 L22.2928932,12.2928932 C22.6533772,11.9324093 23.2206082,11.9046797 23.6128994,12.2097046 L23.7071068,12.2928932 L26.7071068,15.2928932 C26.7355731,15.3213595 26.7623312,15.3515341 26.787214,15.3832499 L26.7071068,15.2928932 C26.7425008,15.3282873 26.774687,15.3656744 26.8036654,15.4046934 C26.8215099,15.4288693 26.8382813,15.453725 26.8539326,15.4793398 C26.8613931,15.4913869 26.8685012,15.5036056 26.8753288,15.5159379 C26.8862061,15.5357061 26.8966234,15.5561086 26.9063462,15.5769009 C26.914321,15.5939015 26.9218036,15.6112044 26.9287745,15.628664 C26.9366843,15.6484208 26.9438775,15.6682023 26.9504533,15.6882636 C26.9552713,15.7031487 26.9599023,15.7185367 26.9641549,15.734007 C26.9701664,15.7555635 26.9753602,15.7772539 26.9798348,15.7992059 C26.9832978,15.8166247 26.9863719,15.834051 26.9889822,15.8515331 C26.9920328,15.8714753 26.9944666,15.892114 26.9962623,15.912935 C26.9978436,15.9317345 26.9989053,15.9497336 26.9994829,15.9677454 C26.9998183,15.9777892 27,15.9888734 27,16 L26.9994506,16.0332468 C26.9988772,16.050591 26.997855,16.0679231 26.996384,16.0852242 L27,16 C27,16.0506203 26.9962388,16.1003621 26.9889807,16.1489612 C26.9863719,16.165949 26.9832978,16.1833753 26.9797599,16.2007258 C26.9753602,16.2227461 26.9701664,16.2444365 26.964279,16.2658396 C26.9599023,16.2814633 26.9552713,16.2968513 26.9502619,16.3121425 C26.9438775,16.3317977 26.9366843,16.3515792 26.928896,16.3710585 C26.9218036,16.3887956 26.914321,16.4060985 26.9063266,16.4232215 C26.8966234,16.4438914 26.8862061,16.4642939 26.8751242,16.484277 C26.8685012,16.4963944 26.8613931,16.5086131 26.8540045,16.5207088 C26.8382813,16.546275 26.8215099,16.5711307 26.8036865,16.5951593 C26.7992821,16.6012086 26.7948255,16.6070733 26.7902954,16.6128994 C26.7849289,16.6196628 26.7826279,16.6225624 26.7803112,16.625449 L26.7071068,16.7071068 L23.7071068,19.7071068 C23.3165825,20.0976311 22.6834175,20.0976311 22.2928932,19.7071068 C21.9324093,19.3466228 21.9046797,18.7793918 22.2097046,18.3871006 L22.2928932,18.2928932 L23.585,17 L17,17 L17,23.585 L18.2928932,22.2928932 C18.6533772,21.9324093 19.2206082,21.9046797 19.6128994,22.2097046 L19.7071068,22.2928932 C20.0675907,22.6533772 20.0953203,23.2206082 19.7902954,23.6128994 L19.7071068,23.7071068 L16.7071068,26.7071068 C16.6786405,26.7355731 16.6484659,26.7623312 16.6167501,26.787214 L16.7071068,26.7071068 C16.6717127,26.7425008 16.6343256,26.774687 16.5953066,26.8036654 C16.5711307,26.8215099 16.546275,26.8382813 16.5206602,26.8539326 C16.5086131,26.8613931 16.4963944,26.8685012 16.4840621,26.8753288 C16.4642939,26.8862061 16.4438914,26.8966234 16.4230991,26.9063462 C16.4060985,26.914321 16.3887956,26.9218036 16.371336,26.9287745 C16.3515792,26.9366843 16.3317977,26.9438775 16.3117364,26.9504533 C16.2968513,26.9552713 16.2814633,26.9599023 16.265993,26.9641549 C16.2444365,26.9701664 16.2227461,26.9753602 16.2007941,26.9798348 C16.1833753,26.9832978 16.165949,26.9863719 16.1484669,26.9889822 C16.1281144,26.9920941 16.1070574,26.994564 16.085811,26.9963697 C16.0679231,26.997855 16.050591,26.9988772 16.0332468,26.9994506 C16.0224019,26.9998151 16.0112225,27 16,27 L15.9677454,26.9994829 C15.9497336,26.9989053 15.9317345,26.9978436 15.9137692,26.9962979 L16,27 C15.9493797,27 15.8996379,26.9962388 15.8510388,26.9889807 C15.834051,26.9863719 15.8166247,26.9832978 15.7992742,26.9797599 C15.7772539,26.9753602 15.7555635,26.9701664 15.7341604,26.964279 C15.7185367,26.9599023 15.7031487,26.9552713 15.6878575,26.9502619 C15.6682023,26.9438775 15.6484208,26.9366843 15.6289415,26.928896 C15.6112044,26.9218036 15.5939015,26.914321 15.5767785,26.9063266 C15.5561086,26.8966234 15.5357061,26.8862061 15.515723,26.8751242 C15.5036056,26.8685012 15.4913869,26.8613931 15.4792912,26.8540045 C15.453725,26.8382813 15.4288693,26.8215099 15.4048407,26.8036865 C15.3987914,26.7992821 15.3929267,26.7948255 15.3871006,26.7902954 C15.3515341,26.7623312 15.3213595,26.7355731 15.2928932,26.7071068 L12.2928932,23.7071068 C11.9023689,23.3165825 11.9023689,22.6834175 12.2928932,22.2928932 C12.6533772,21.9324093 13.2206082,21.9046797 13.6128994,22.2097046 L13.7071068,22.2928932 L15,23.585 L15,17 L8.414,17 L9.70710678,18.2928932 C10.0675907,18.6533772 10.0953203,19.2206082 9.79029539,19.6128994 L9.70710678,19.7071068 C9.34662282,20.0675907 8.77939176,20.0953203 8.38710056,19.7902954 L8.29289322,19.7071068 L5.29289322,16.7071068 L5.21968877,16.625449 C5.2173721,16.6225624 5.21507113,16.6196628 5.21278596,16.6167501 L5.29289322,16.7071068 C5.25749917,16.6717127 5.22531295,16.6343256 5.19633458,16.5953066 C5.17849009,16.5711307 5.1617187,16.546275 5.14606743,16.5206602 C5.13860692,16.5086131 5.13149883,16.4963944 5.12467117,16.4840621 C5.11379392,16.4642939 5.10337664,16.4438914 5.09365378,16.4230991 C5.08567905,16.4060985 5.07819642,16.3887956 5.07122549,16.371336 C5.06331574,16.3515792 5.05612249,16.3317977 5.04954668,16.3117364 C5.04472872,16.2968513 5.04009773,16.2814633 5.03584514,16.265993 C5.02983363,16.2444365 5.0246398,16.2227461 5.02016515,16.2007941 C5.01670217,16.1833753 5.01362808,16.165949 5.0110178,16.1484669 C5.00810098,16.1294204 5.00574796,16.1096949 5.00397748,16.0898018 C5.00189498,16.0659949 5.00063489,16.042681 5.00018615,16.0193545 C5.00006128,16.0129086 5,16.0064615 5,16 L5.00016755,15.9816379 C5.00059932,15.9579802 5.0018656,15.9343349 5.00396641,15.9107499 L5,16 C5,15.9493797 5.00376119,15.8996379 5.01101934,15.8510388 C5.01362808,15.834051 5.01670217,15.8166247 5.02024007,15.7992742 C5.0246398,15.7772539 5.02983363,15.7555635 5.03572097,15.7341604 C5.04009773,15.7185367 5.04472872,15.7031487 5.04973809,15.6878575 C5.05612249,15.6682023 5.06331574,15.6484208 5.07110396,15.6289415 C5.07819642,15.6112044 5.08567905,15.5939015 5.09367336,15.5767785 C5.10337664,15.5561086 5.11379392,15.5357061 5.12487577,15.515723 C5.13149883,15.5036056 5.13860692,15.4913869 5.14599545,15.4792912 C5.1617187,15.453725 5.17849009,15.4288693 5.19631351,15.4048407 C5.20071786,15.3987914 5.20517454,15.3929267 5.20970461,15.3871006 C5.23766884,15.3515341 5.26442691,15.3213595 5.29289322,15.2928932 L8.29289322,12.2928932 C8.68341751,11.9023689 9.31658249,11.9023689 9.70710678,12.2928932 C10.0675907,12.6533772 10.0953203,13.2206082 9.79029539,13.6128994 L9.70710678,13.7071068 L8.414,15 L15,15 L15,8.414 L13.7071068,9.70710678 C13.3466228,10.0675907 12.7793918,10.0953203 12.3871006,9.79029539 L12.2928932,9.70710678 C11.9324093,9.34662282 11.9046797,8.77939176 12.2097046,8.38710056 L12.2928932,8.29289322 L15.2928932,5.29289322 L15.374551,5.21968877 C15.3774376,5.2173721 15.3803372,5.21507113 15.3832499,5.21278596 L15.2928932,5.29289322 C15.3282873,5.25749917 15.3656744,5.22531295 15.4046934,5.19633458 C15.4288693,5.17849009 15.453725,5.1617187 15.4793398,5.14606743 C15.4913869,5.13860692 15.5036056,5.13149883 15.5159379,5.12467117 C15.5357061,5.11379392 15.5561086,5.10337664 15.5769009,5.09365378 C15.5939015,5.08567905 15.6112044,5.07819642 15.628664,5.07122549 C15.6484208,5.06331574 15.6682023,5.05612249 15.6882636,5.04954668 C15.7031487,5.04472872 15.7185367,5.04009773 15.734007,5.03584514 C15.7555635,5.02983363 15.7772539,5.0246398 15.7992059,5.02016515 C15.8166247,5.01670217 15.834051,5.01362808 15.8515331,5.0110178 C15.8705042,5.00811223 15.890153,5.00576612 15.909968,5.00399798 C15.9343349,5.0018656 15.9579802,5.00059932 15.9816379,5.00016755 C15.9872016,5.00006024 15.9935938,5 16,5 Z"/>
</svg>
